<svg width="322" height="433" viewBox="0 0 322 433" fill="none" xmlns="http://www.w3.org/2000/svg">
<rect x="1" width="321" height="310" fill="#F8E5E2"/>
<mask id="mask0_1_9984" style="mask-type:alpha" maskUnits="userSpaceOnUse" x="0" y="0" width="321" height="310">
<rect width="321" height="310" fill="#C4C4C4"/>
</mask>
<g mask="url(#mask0_1_9984)">
<rect x="-17.3203" y="-205.733" width="346.321" height="519.733"/>
</g>
<path d="M12.63 329.92C13.51 329.92 14.43 330 15.39 330.16C16.35 330.3 17.1 330.49 17.64 330.73C17.82 330.79 17.93 330.87 17.97 330.97C18.03 331.05 18.08 331.2 18.12 331.42L18.48 335.59C18.48 335.65 18.43 335.69 18.33 335.71C18.23 335.73 18.17 335.7 18.15 335.62C17.47 334.04 16.56 332.82 15.42 331.96C14.28 331.1 12.96 330.67 11.46 330.67C9.48 330.67 7.95 331.4 6.87 332.86C5.79 334.32 5.25 336.28 5.25 338.74C5.25 340.58 5.54 342.26 6.12 343.78C6.72 345.3 7.55 346.51 8.61 347.41C9.69 348.29 10.91 348.73 12.27 348.73C13.55 348.73 14.69 348.31 15.69 347.47C16.71 346.61 17.62 345.31 18.42 343.57C18.44 343.49 18.5 343.46 18.6 343.48C18.72 343.5 18.78 343.54 18.78 343.6L18.33 347.68C18.29 347.92 18.24 348.08 18.18 348.16C18.14 348.22 18.03 348.29 17.85 348.37C16.07 349.03 14.24 349.36 12.36 349.36C9.92 349.36 7.88 348.88 6.24 347.92C4.6 346.94 3.39 345.71 2.61 344.23C1.85 342.73 1.47 341.17 1.47 339.55C1.47 337.65 1.98 335.97 3 334.51C4.04 333.05 5.41 331.92 7.11 331.12C8.83 330.32 10.67 329.92 12.63 329.92ZM34.7984 348.64C34.8784 348.64 34.9184 348.7 34.9184 348.82C34.9184 348.94 34.8784 349 34.7984 349C34.2784 349 33.8584 348.99 33.5384 348.97L31.7984 348.94L29.9984 348.97C29.6984 348.99 29.2884 349 28.7684 349C28.7284 349 28.7084 348.94 28.7084 348.82C28.7084 348.7 28.7284 348.64 28.7684 348.64C29.3884 348.64 29.8084 348.5 30.0284 348.22C30.2684 347.92 30.3884 347.37 30.3884 346.57V342.25C30.3884 341.17 30.1884 340.37 29.7884 339.85C29.3884 339.33 28.7684 339.07 27.9284 339.07C27.4484 339.07 26.9484 339.17 26.4284 339.37C25.9284 339.57 25.4884 339.84 25.1084 340.18V346.57C25.1084 347.37 25.2184 347.92 25.4384 348.22C25.6784 348.5 26.1084 348.64 26.7284 348.64C26.8084 348.64 26.8484 348.7 26.8484 348.82C26.8484 348.94 26.8084 349 26.7284 349C26.2084 349 25.7884 348.99 25.4684 348.97L23.7284 348.94L21.9284 348.97C21.6284 348.99 21.2184 349 20.6984 349C20.6584 349 20.6384 348.94 20.6384 348.82C20.6384 348.7 20.6584 348.64 20.6984 348.64C21.3184 348.64 21.7384 348.5 21.9584 348.22C22.1984 347.92 22.3184 347.37 22.3184 346.57V331.33C22.3184 330.63 22.2484 330.13 22.1084 329.83C21.9884 329.53 21.7684 329.38 21.4484 329.38C21.1684 329.38 20.7884 329.49 20.3084 329.71H20.2784C20.2184 329.71 20.1584 329.66 20.0984 329.56C20.0584 329.44 20.0584 329.37 20.0984 329.35L24.4784 327.28L24.6284 327.25C24.7284 327.25 24.8284 327.3 24.9284 327.4C25.0484 327.48 25.1084 327.56 25.1084 327.64V339.52C26.5284 337.88 28.0484 337.06 29.6684 337.06C30.7484 337.06 31.5984 337.41 32.2184 338.11C32.8584 338.79 33.1784 339.69 33.1784 340.81V346.57C33.1784 347.37 33.2884 347.92 33.5084 348.22C33.7484 348.5 34.1784 348.64 34.7984 348.64ZM39.382 334.15C38.802 334.15 38.352 333.99 38.032 333.67C37.712 333.35 37.552 332.9 37.552 332.32C37.552 331.8 37.712 331.39 38.032 331.09C38.372 330.77 38.822 330.61 39.382 330.61C39.942 330.61 40.372 330.76 40.672 331.06C40.972 331.36 41.122 331.78 41.122 332.32C41.122 332.9 40.972 333.35 40.672 333.67C40.372 333.99 39.942 334.15 39.382 334.15ZM36.502 349C36.442 349 36.412 348.94 36.412 348.82C36.412 348.7 36.442 348.64 36.502 348.64C37.122 348.64 37.542 348.5 37.762 348.22C37.982 347.92 38.092 347.37 38.092 346.57V341.2C38.092 340.52 38.022 340.03 37.882 339.73C37.742 339.43 37.512 339.28 37.192 339.28C36.932 339.28 36.562 339.39 36.082 339.61H36.052C35.972 339.61 35.912 339.56 35.872 339.46C35.832 339.34 35.842 339.27 35.902 339.25L40.432 337.15L40.522 337.12C40.622 337.12 40.722 337.17 40.822 337.27C40.922 337.37 40.972 337.46 40.972 337.54V338.2C40.932 339 40.912 339.98 40.912 341.14V346.57C40.912 347.37 41.022 347.92 41.242 348.22C41.482 348.5 41.912 348.64 42.532 348.64C42.592 348.64 42.622 348.7 42.622 348.82C42.622 348.94 42.592 349 42.532 349C42.012 349 41.602 348.99 41.302 348.97L39.502 348.94L37.732 348.97C37.432 348.99 37.022 349 36.502 349ZM50.2329 349.36C48.9129 349.36 47.7929 349.08 46.8729 348.52C45.9729 347.94 45.2929 347.2 44.8329 346.3C44.3929 345.38 44.1729 344.42 44.1729 343.42C44.1729 342.16 44.5229 341.06 45.2229 340.12C45.9229 339.16 46.8129 338.43 47.8929 337.93C48.9929 337.41 50.1129 337.15 51.2529 337.15C52.2129 337.15 53.0729 337.35 53.8329 337.75C54.6129 338.15 55.0029 338.7 55.0029 339.4C55.0029 339.78 54.8529 340.11 54.5529 340.39C54.2729 340.65 53.8729 340.78 53.3529 340.78C52.8729 340.78 52.4929 340.66 52.2129 340.42C51.9329 340.16 51.7029 339.77 51.5229 339.25C51.3429 338.69 51.1629 338.31 50.9829 338.11C50.8229 337.89 50.5229 337.78 50.0829 337.78C49.2229 337.78 48.5329 338.21 48.0129 339.07C47.5129 339.91 47.2629 341.03 47.2629 342.43C47.2629 344.09 47.6329 345.42 48.3729 346.42C49.1129 347.4 50.2929 347.89 51.9129 347.89C52.4529 347.89 52.9129 347.83 53.2929 347.71C53.6929 347.59 54.1929 347.39 54.7929 347.11H54.8229C54.8829 347.11 54.9329 347.14 54.9729 347.2C55.0329 347.26 55.0429 347.31 55.0029 347.35C54.2629 348.03 53.5229 348.54 52.7829 348.88C52.0429 349.2 51.1929 349.36 50.2329 349.36ZM70.867 348.64C70.927 348.64 70.957 348.7 70.957 348.82C70.957 348.94 70.927 349 70.867 349C70.347 349 69.937 348.99 69.637 348.97L67.837 348.94L65.527 348.97C65.187 348.99 64.727 349 64.147 349C64.087 349 64.057 348.94 64.057 348.82C64.057 348.7 64.087 348.64 64.147 348.64C64.867 348.64 65.227 348.43 65.227 348.01C65.227 347.79 65.147 347.59 64.987 347.41L61.567 343.03L60.997 343.54V346.57C60.997 347.37 61.107 347.92 61.327 348.22C61.567 348.5 61.997 348.64 62.617 348.64C62.697 348.64 62.737 348.7 62.737 348.82C62.737 348.94 62.697 349 62.617 349C62.097 349 61.677 348.99 61.357 348.97L59.617 348.94L57.817 348.97C57.517 348.99 57.107 349 56.587 349C56.547 349 56.527 348.94 56.527 348.82C56.527 348.7 56.547 348.64 56.587 348.64C57.207 348.64 57.627 348.5 57.847 348.22C58.087 347.92 58.207 347.37 58.207 346.57V331.33C58.207 330.63 58.137 330.13 57.997 329.83C57.877 329.53 57.657 329.38 57.337 329.38C57.057 329.38 56.677 329.49 56.197 329.71H56.167C56.107 329.71 56.047 329.66 55.987 329.56C55.947 329.44 55.947 329.37 55.987 329.35L60.367 327.28L60.517 327.25C60.617 327.25 60.717 327.3 60.817 327.4C60.937 327.48 60.997 327.56 60.997 327.64V342.85L63.787 340.15C64.307 339.67 64.567 339.18 64.567 338.68C64.567 338.42 64.467 338.21 64.267 338.05C64.067 337.87 63.787 337.78 63.427 337.78C63.387 337.78 63.367 337.72 63.367 337.6C63.367 337.48 63.387 337.42 63.427 337.42C64.007 337.42 64.457 337.43 64.777 337.45L67.147 337.48L69.337 337.45C69.617 337.43 70.007 337.42 70.507 337.42C70.567 337.42 70.597 337.48 70.597 337.6C70.597 337.72 70.567 337.78 70.507 337.78C69.647 337.78 68.657 338 67.537 338.44C66.437 338.86 65.447 339.48 64.567 340.3L63.487 341.29L67.597 346.57C68.177 347.29 68.727 347.82 69.247 348.16C69.787 348.48 70.327 348.64 70.867 348.64ZM81.806 347.02C81.846 347.02 81.886 347.06 81.926 347.14C81.986 347.22 81.996 347.28 81.956 347.32C81.216 348.04 80.466 348.56 79.706 348.88C78.946 349.2 78.116 349.36 77.216 349.36C75.956 349.36 74.866 349.1 73.946 348.58C73.026 348.04 72.326 347.33 71.846 346.45C71.366 345.55 71.126 344.59 71.126 343.57C71.126 342.41 71.426 341.34 72.026 340.36C72.626 339.36 73.446 338.58 74.486 338.02C75.526 337.44 76.686 337.15 77.966 337.15C79.206 337.15 80.156 337.42 80.816 337.96C81.476 338.48 81.806 339.2 81.806 340.12C81.806 340.7 81.696 340.99 81.476 340.99H79.646L74.246 341.05C74.186 341.43 74.156 341.85 74.156 342.31C74.156 344.03 74.556 345.39 75.356 346.39C76.176 347.39 77.296 347.89 78.716 347.89C79.216 347.89 79.736 347.82 80.276 347.68C80.816 347.54 81.306 347.33 81.746 347.05L81.806 347.02ZM76.856 337.75C76.256 337.75 75.736 337.99 75.296 338.47C74.856 338.95 74.536 339.61 74.336 340.45L78.596 340.36C78.536 338.62 77.956 337.75 76.856 337.75ZM97.9751 348.64C98.0351 348.64 98.0651 348.7 98.0651 348.82C98.0651 348.94 98.0351 349 97.9751 349C97.4551 349 97.0451 348.99 96.7451 348.97L94.9451 348.94L93.2051 348.97C92.8851 348.99 92.4651 349 91.9451 349C91.8851 349 91.8551 348.94 91.8551 348.82C91.8551 348.7 91.8851 348.64 91.9451 348.64C92.5651 348.64 92.9851 348.5 93.2051 348.22C93.4251 347.92 93.5351 347.37 93.5351 346.57V342.25C93.5351 341.17 93.3351 340.37 92.9351 339.85C92.5551 339.33 91.9451 339.07 91.1051 339.07C90.6251 339.07 90.1251 339.17 89.6051 339.37C89.1051 339.57 88.6651 339.84 88.2851 340.18V346.57C88.2851 347.37 88.3951 347.92 88.6151 348.22C88.8551 348.5 89.2851 348.64 89.9051 348.64C89.9651 348.64 89.9951 348.7 89.9951 348.82C89.9951 348.94 89.9651 349 89.9051 349C89.3851 349 88.9751 348.99 88.6751 348.97L86.8751 348.94L85.1051 348.97C84.8051 348.99 84.3951 349 83.8751 349C83.8151 349 83.7851 348.94 83.7851 348.82C83.7851 348.7 83.8151 348.64 83.8751 348.64C84.4951 348.64 84.9151 348.5 85.1351 348.22C85.3551 347.92 85.4651 347.37 85.4651 346.57V340.93C85.4651 340.31 85.3851 339.86 85.2251 339.58C85.0851 339.28 84.8551 339.13 84.5351 339.13C84.1951 339.13 83.7151 339.27 83.0951 339.55H83.0351C82.9751 339.55 82.9251 339.5 82.8851 339.4C82.8651 339.3 82.8751 339.24 82.9151 339.22L87.0851 337.18C87.2051 337.14 87.2751 337.12 87.2951 337.12C87.5151 337.12 87.7251 337.34 87.9251 337.78C88.1251 338.2 88.2451 338.78 88.2851 339.52C89.6651 337.88 91.1851 337.06 92.8451 337.06C93.9251 337.06 94.7751 337.41 95.3951 338.11C96.0351 338.79 96.3551 339.69 96.3551 340.81V346.57C96.3551 347.37 96.4651 347.92 96.6851 348.22C96.9251 348.5 97.3551 348.64 97.9751 348.64ZM130.517 348.64C130.557 348.64 130.577 348.7 130.577 348.82C130.577 348.94 130.557 349 130.517 349C129.837 349 129.297 348.99 128.897 348.97L126.677 348.94L124.427 348.97C124.047 348.99 123.527 349 122.867 349C122.807 349 122.777 348.94 122.777 348.82C122.777 348.7 122.807 348.64 122.867 348.64C123.707 348.64 124.277 348.54 124.577 348.34C124.877 348.14 125.027 347.72 125.027 347.08L124.997 346.57L124.367 334.3L118.187 348.79C118.147 348.87 118.067 348.91 117.947 348.91C117.827 348.91 117.747 348.87 117.707 348.79L110.117 334.36L109.877 345.19C109.857 346.27 110.067 347.12 110.507 347.74C110.967 348.34 111.607 348.64 112.427 348.64C112.487 348.64 112.517 348.7 112.517 348.82C112.517 348.94 112.487 349 112.427 349C111.887 349 111.467 348.99 111.167 348.97L109.517 348.94L107.627 348.97C107.307 348.99 106.877 349 106.337 349C106.277 349 106.247 348.94 106.247 348.82C106.247 348.7 106.277 348.64 106.337 348.64C107.157 348.64 107.807 348.33 108.287 347.71C108.767 347.09 109.017 346.25 109.037 345.19L109.307 332.77L109.277 332.74C108.877 332 108.457 331.46 108.017 331.12C107.597 330.78 107.107 330.61 106.547 330.61C106.487 330.61 106.457 330.55 106.457 330.43C106.457 330.31 106.487 330.25 106.547 330.25L107.957 330.28C108.237 330.3 108.597 330.31 109.037 330.31L110.627 330.28C110.807 330.26 111.037 330.25 111.317 330.25C111.577 330.25 111.777 330.34 111.917 330.52C112.057 330.7 112.317 331.13 112.697 331.81L119.237 344.08L124.937 331C125.057 330.72 125.177 330.53 125.297 330.43C125.437 330.31 125.617 330.25 125.837 330.25C126.017 330.25 126.217 330.26 126.437 330.28C126.677 330.3 126.947 330.31 127.247 330.31L129.017 330.28C129.297 330.26 129.697 330.25 130.217 330.25C130.277 330.25 130.307 330.31 130.307 330.43C130.307 330.55 130.277 330.61 130.217 330.61C129.277 330.61 128.597 330.8 128.177 331.18C127.757 331.56 127.567 332.15 127.607 332.95L128.327 346.57C128.367 347.19 128.437 347.64 128.537 347.92C128.657 348.2 128.857 348.39 129.137 348.49C129.437 348.59 129.897 348.64 130.517 348.64ZM145.8 347.05C145.86 347.05 145.91 347.1 145.95 347.2C146.01 347.3 146.01 347.36 145.95 347.38L141.81 349.39C141.77 349.41 141.72 349.42 141.66 349.42C141.48 349.42 141.31 349.24 141.15 348.88C141.01 348.52 140.92 348.03 140.88 347.41C140.22 348.03 139.56 348.52 138.9 348.88C138.24 349.22 137.51 349.39 136.71 349.39C135.89 349.39 135.13 349.19 134.43 348.79C133.75 348.37 133.21 347.76 132.81 346.96C132.41 346.16 132.21 345.2 132.21 344.08C132.21 342.66 132.54 341.42 133.2 340.36C133.86 339.28 134.73 338.46 135.81 337.9C136.89 337.34 138.05 337.06 139.29 337.06C140.37 337.06 141.34 337.32 142.2 337.84C142.66 337.64 143.05 337.38 143.37 337.06C143.39 337.04 143.42 337.03 143.46 337.03C143.5 337.03 143.54 337.05 143.58 337.09C143.64 337.11 143.67 337.14 143.67 337.18V345.73C143.67 346.33 143.73 346.76 143.85 347.02C143.99 347.26 144.21 347.38 144.51 347.38C144.77 347.38 145.18 347.27 145.74 347.05H145.8ZM138.24 347.8C139.04 347.8 139.91 347.48 140.85 346.84V346.54V340.36C140.85 339.58 140.63 338.94 140.19 338.44C139.77 337.94 139.21 337.69 138.51 337.69C137.51 337.69 136.72 338.19 136.14 339.19C135.58 340.19 135.3 341.48 135.3 343.06C135.3 344.56 135.55 345.73 136.05 346.57C136.57 347.39 137.3 347.8 138.24 347.8ZM161.227 348.64C161.287 348.64 161.317 348.7 161.317 348.82C161.317 348.94 161.287 349 161.227 349C160.707 349 160.297 348.99 159.997 348.97L158.197 348.94L156.457 348.97C156.137 348.99 155.717 349 155.197 349C155.137 349 155.107 348.94 155.107 348.82C155.107 348.7 155.137 348.64 155.197 348.64C155.817 348.64 156.237 348.5 156.457 348.22C156.677 347.92 156.787 347.37 156.787 346.57V342.25C156.787 341.17 156.587 340.37 156.187 339.85C155.807 339.33 155.197 339.07 154.357 339.07C153.877 339.07 153.377 339.17 152.857 339.37C152.357 339.57 151.917 339.84 151.537 340.18V346.57C151.537 347.37 151.647 347.92 151.867 348.22C152.107 348.5 152.537 348.64 153.157 348.64C153.217 348.64 153.247 348.7 153.247 348.82C153.247 348.94 153.217 349 153.157 349C152.637 349 152.227 348.99 151.927 348.97L150.127 348.94L148.357 348.97C148.057 348.99 147.647 349 147.127 349C147.067 349 147.037 348.94 147.037 348.82C147.037 348.7 147.067 348.64 147.127 348.64C147.747 348.64 148.167 348.5 148.387 348.22C148.607 347.92 148.717 347.37 148.717 346.57V340.93C148.717 340.31 148.637 339.86 148.477 339.58C148.337 339.28 148.107 339.13 147.787 339.13C147.447 339.13 146.967 339.27 146.347 339.55H146.287C146.227 339.55 146.177 339.5 146.137 339.4C146.117 339.3 146.127 339.24 146.167 339.22L150.337 337.18C150.457 337.14 150.527 337.12 150.547 337.12C150.767 337.12 150.977 337.34 151.177 337.78C151.377 338.2 151.497 338.78 151.537 339.52C152.917 337.88 154.437 337.06 156.097 337.06C157.177 337.06 158.027 337.41 158.647 338.11C159.287 338.79 159.607 339.69 159.607 340.81V346.57C159.607 347.37 159.717 347.92 159.937 348.22C160.177 348.5 160.607 348.64 161.227 348.64ZM165.738 334.15C165.158 334.15 164.708 333.99 164.388 333.67C164.068 333.35 163.908 332.9 163.908 332.32C163.908 331.8 164.068 331.39 164.388 331.09C164.728 330.77 165.178 330.61 165.738 330.61C166.298 330.61 166.728 330.76 167.028 331.06C167.328 331.36 167.478 331.78 167.478 332.32C167.478 332.9 167.328 333.35 167.028 333.67C166.728 333.99 166.298 334.15 165.738 334.15ZM167.388 338.2C167.348 339 167.328 339.98 167.328 341.14V350.44C167.328 351.8 167.158 352.91 166.818 353.77C166.498 354.65 165.948 355.38 165.168 355.96C164.408 356.54 163.348 357.04 161.988 357.46C161.948 357.48 161.898 357.43 161.838 357.31C161.798 357.21 161.808 357.15 161.868 357.13C162.828 356.71 163.508 356.04 163.908 355.12C164.308 354.2 164.508 352.87 164.508 351.13V341.2C164.508 340.52 164.438 340.03 164.298 339.73C164.178 339.43 163.958 339.28 163.638 339.28C163.378 339.28 163.008 339.39 162.528 339.61H162.498C162.418 339.61 162.348 339.56 162.288 339.46C162.248 339.34 162.258 339.27 162.318 339.25L166.848 337.15L166.938 337.12C167.038 337.12 167.138 337.17 167.238 337.27C167.338 337.37 167.388 337.46 167.388 337.54V338.2ZM176.739 349.39C175.499 349.39 174.409 349.11 173.469 348.55C172.549 347.97 171.839 347.2 171.339 346.24C170.839 345.26 170.589 344.2 170.589 343.06C170.589 341.76 170.919 340.66 171.579 339.76C172.239 338.84 173.079 338.16 174.099 337.72C175.119 337.26 176.169 337.03 177.249 337.03C178.489 337.03 179.569 337.32 180.489 337.9C181.409 338.48 182.109 339.25 182.589 340.21C183.089 341.15 183.339 342.16 183.339 343.24C183.339 344.44 183.039 345.51 182.439 346.45C181.839 347.37 181.029 348.09 180.009 348.61C179.009 349.13 177.919 349.39 176.739 349.39ZM177.639 348.76C178.419 348.76 179.009 348.38 179.409 347.62C179.829 346.84 180.039 345.73 180.039 344.29C180.039 342.89 179.859 341.69 179.499 340.69C179.139 339.69 178.669 338.94 178.089 338.44C177.509 337.92 176.889 337.66 176.229 337.66C174.629 337.66 173.829 339.09 173.829 341.95C173.829 343.29 173.999 344.48 174.339 345.52C174.679 346.54 175.139 347.34 175.719 347.92C176.299 348.48 176.939 348.76 177.639 348.76ZM191.417 349.39C190.177 349.39 189.087 349.11 188.147 348.55C187.227 347.97 186.517 347.2 186.017 346.24C185.517 345.26 185.267 344.2 185.267 343.06C185.267 341.76 185.597 340.66 186.257 339.76C186.917 338.84 187.757 338.16 188.777 337.72C189.797 337.26 190.847 337.03 191.927 337.03C193.167 337.03 194.247 337.32 195.167 337.9C196.087 338.48 196.787 339.25 197.267 340.21C197.767 341.15 198.017 342.16 198.017 343.24C198.017 344.44 197.717 345.51 197.117 346.45C196.517 347.37 195.707 348.09 194.687 348.61C193.687 349.13 192.597 349.39 191.417 349.39ZM192.317 348.76C193.097 348.76 193.687 348.38 194.087 347.62C194.507 346.84 194.717 345.73 194.717 344.29C194.717 342.89 194.537 341.69 194.177 340.69C193.817 339.69 193.347 338.94 192.767 338.44C192.187 337.92 191.567 337.66 190.907 337.66C189.307 337.66 188.507 339.09 188.507 341.95C188.507 343.29 188.677 344.48 189.017 345.52C189.357 346.54 189.817 347.34 190.397 347.92C190.977 348.48 191.617 348.76 192.317 348.76ZM207.954 337.12C208.414 337.12 208.854 337.29 209.274 337.63C209.714 337.95 209.934 338.34 209.934 338.8C209.934 339.22 209.804 339.57 209.544 339.85C209.284 340.11 208.944 340.24 208.524 340.24C208.224 340.24 207.974 340.18 207.774 340.06C207.594 339.94 207.404 339.76 207.204 339.52C207.024 339.32 206.864 339.18 206.724 339.1C206.604 339 206.454 338.95 206.274 338.95C206.074 338.95 205.854 339.03 205.614 339.19C205.394 339.33 205.044 339.64 204.564 340.12V346.57C204.564 347.37 204.754 347.92 205.134 348.22C205.514 348.5 206.214 348.64 207.234 348.64C207.314 348.64 207.354 348.7 207.354 348.82C207.354 348.94 207.314 349 207.234 349C206.534 349 205.984 348.99 205.584 348.97L203.154 348.94L201.384 348.97C201.084 348.99 200.674 349 200.154 349C200.094 349 200.064 348.94 200.064 348.82C200.064 348.7 200.094 348.64 200.154 348.64C200.774 348.64 201.194 348.5 201.414 348.22C201.634 347.92 201.744 347.37 201.744 346.57V340.93C201.744 340.31 201.664 339.86 201.504 339.58C201.364 339.28 201.134 339.13 200.814 339.13C200.474 339.13 199.994 339.27 199.374 339.55H199.314C199.254 339.55 199.204 339.5 199.164 339.4C199.144 339.3 199.154 339.24 199.194 339.22L203.364 337.18C203.484 337.14 203.554 337.12 203.574 337.12C203.794 337.12 203.994 337.33 204.174 337.75C204.374 338.15 204.494 338.7 204.534 339.4C205.354 338.56 206.024 337.97 206.544 337.63C207.084 337.29 207.554 337.12 207.954 337.12ZM214.402 334.15C213.822 334.15 213.372 333.99 213.052 333.67C212.732 333.35 212.572 332.9 212.572 332.32C212.572 331.8 212.732 331.39 213.052 331.09C213.392 330.77 213.842 330.61 214.402 330.61C214.962 330.61 215.392 330.76 215.692 331.06C215.992 331.36 216.142 331.78 216.142 332.32C216.142 332.9 215.992 333.35 215.692 333.67C215.392 333.99 214.962 334.15 214.402 334.15ZM211.522 349C211.462 349 211.432 348.94 211.432 348.82C211.432 348.7 211.462 348.64 211.522 348.64C212.142 348.64 212.562 348.5 212.782 348.22C213.002 347.92 213.112 347.37 213.112 346.57V341.2C213.112 340.52 213.042 340.03 212.902 339.73C212.762 339.43 212.532 339.28 212.212 339.28C211.952 339.28 211.582 339.39 211.102 339.61H211.072C210.992 339.61 210.932 339.56 210.892 339.46C210.852 339.34 210.862 339.27 210.922 339.25L215.452 337.15L215.542 337.12C215.642 337.12 215.742 337.17 215.842 337.27C215.942 337.37 215.992 337.46 215.992 337.54V338.2C215.952 339 215.932 339.98 215.932 341.14V346.57C215.932 347.37 216.042 347.92 216.262 348.22C216.502 348.5 216.932 348.64 217.552 348.64C217.612 348.64 217.642 348.7 217.642 348.82C217.642 348.94 217.612 349 217.552 349C217.032 349 216.622 348.99 216.322 348.97L214.522 348.94L212.752 348.97C212.452 348.99 212.042 349 211.522 349Z" fill="#292E36"/>
<path d="M294.382 344.02C294.382 345.4 293.902 346.57 292.942 347.53C292.002 348.47 290.762 349.05 289.222 349.27V352.24C289.222 352.38 289.082 352.45 288.802 352.45C288.502 352.45 288.352 352.38 288.352 352.24V349.36H287.902C287.002 349.36 286.062 349.24 285.082 349C284.102 348.74 283.442 348.46 283.102 348.16C283.002 348.08 282.922 348.01 282.862 347.95C282.822 347.87 282.802 347.75 282.802 347.59L282.712 342.82V342.79C282.712 342.71 282.762 342.67 282.862 342.67C282.962 342.65 283.022 342.68 283.042 342.76C283.602 343.9 284.102 344.85 284.542 345.61C284.982 346.35 285.522 347.01 286.162 347.59C286.802 348.17 287.532 348.5 288.352 348.58V340.96C288.092 340.76 287.682 340.48 287.122 340.12C286.162 339.5 285.412 338.97 284.872 338.53C284.352 338.09 283.902 337.56 283.522 336.94C283.142 336.32 282.952 335.59 282.952 334.75C282.952 333.33 283.472 332.21 284.512 331.39C285.572 330.57 286.852 330.09 288.352 329.95V327.43C288.352 327.35 288.392 327.29 288.472 327.25C288.572 327.21 288.682 327.19 288.802 327.19C288.922 327.19 289.022 327.21 289.102 327.25C289.182 327.29 289.222 327.35 289.222 327.43V329.92H289.252C289.952 329.92 290.662 329.99 291.382 330.13C292.102 330.25 292.682 330.4 293.122 330.58C293.302 330.66 293.422 330.75 293.482 330.85C293.542 330.93 293.572 331.04 293.572 331.18V335.59C293.572 335.65 293.522 335.7 293.422 335.74C293.322 335.76 293.262 335.74 293.242 335.68L292.972 335.08C292.532 333.98 292.032 333.03 291.472 332.23C290.932 331.41 290.182 330.89 289.222 330.67V337.81L289.822 338.2C290.822 338.84 291.622 339.4 292.222 339.88C292.822 340.36 293.332 340.95 293.752 341.65C294.172 342.33 294.382 343.12 294.382 344.02ZM285.712 333.28C285.712 334.08 285.942 334.79 286.402 335.41C286.862 336.01 287.512 336.61 288.352 337.21V330.58C287.572 330.6 286.932 330.84 286.432 331.3C285.952 331.76 285.712 332.42 285.712 333.28ZM289.222 348.58C289.882 348.5 290.412 348.24 290.812 347.8C291.232 347.34 291.442 346.66 291.442 345.76C291.442 344.9 291.242 344.14 290.842 343.48C290.462 342.8 289.922 342.18 289.222 341.62V348.58ZM297.573 349C297.533 349 297.513 348.94 297.513 348.82C297.513 348.7 297.533 348.64 297.573 348.64C298.413 348.64 299.053 348.59 299.493 348.49C299.953 348.37 300.283 348.17 300.483 347.89C300.683 347.59 300.783 347.15 300.783 346.57V336.01C300.783 334.51 300.433 333.76 299.733 333.76C299.253 333.76 298.543 334.08 297.603 334.72L297.543 334.75C297.483 334.75 297.423 334.71 297.363 334.63C297.323 334.53 297.323 334.47 297.363 334.45L303.513 330.04C303.593 330 303.663 329.98 303.723 329.98C303.763 329.98 303.803 330.01 303.843 330.07C303.903 330.11 303.933 330.15 303.933 330.19V346.57C303.933 347.15 304.023 347.59 304.203 347.89C304.383 348.17 304.693 348.37 305.133 348.49C305.573 348.59 306.233 348.64 307.113 348.64C307.173 348.64 307.203 348.7 307.203 348.82C307.203 348.94 307.173 349 307.113 349C306.293 349 305.633 348.99 305.133 348.97L302.343 348.94L299.583 348.97C299.083 348.99 298.413 349 297.573 349ZM314.242 337.6C316.102 337.6 317.562 338.1 318.622 339.1C319.682 340.1 320.212 341.52 320.212 343.36C320.212 345.26 319.632 346.74 318.472 347.8C317.332 348.84 315.862 349.36 314.062 349.36C313.122 349.36 312.282 349.18 311.542 348.82C310.802 348.44 310.112 347.87 309.472 347.11L309.442 347.05C309.442 346.97 309.482 346.91 309.562 346.87C309.642 346.81 309.702 346.81 309.742 346.87C310.122 347.29 310.602 347.61 311.182 347.83C311.762 348.03 312.362 348.13 312.982 348.13C314.282 348.13 315.252 347.73 315.892 346.93C316.532 346.11 316.852 345.03 316.852 343.69C316.852 342.17 316.502 340.95 315.802 340.03C315.102 339.09 314.092 338.62 312.772 338.62C312.192 338.62 311.672 338.68 311.212 338.8C310.772 338.92 310.502 338.99 310.402 339.01C310.302 339.01 310.222 338.98 310.162 338.92C310.102 338.84 310.082 338.75 310.102 338.65L311.062 330.61C311.082 330.47 311.112 330.38 311.152 330.34C311.192 330.28 311.292 330.25 311.452 330.25C314.172 330.25 315.982 330.24 316.882 330.22C317.782 330.18 318.372 330.11 318.652 330.01C318.932 329.91 319.152 329.7 319.312 329.38C319.332 329.34 319.392 329.33 319.492 329.35C319.592 329.35 319.632 329.39 319.612 329.47L319.102 332.8C319.062 333.04 318.992 333.2 318.892 333.28C318.812 333.36 318.652 333.4 318.412 333.4L312.082 333.25C311.822 333.25 311.662 333.39 311.602 333.67L311.032 338.14C312.152 337.78 313.222 337.6 314.242 337.6Z" fill="#292E36"/>
<line x1="4.37114e-08" y1="366.5" x2="321" y2="366.5" stroke="#DCDCDC"/>
<path d="M2.08 386.54H4.02V399.14H11.36V401H2.08V386.54ZM13.3414 396.78C13.3414 395.953 13.5347 395.207 13.9214 394.54C14.3214 393.873 14.8681 393.347 15.5614 392.96C16.2547 392.573 17.0414 392.38 17.9214 392.38C18.8281 392.38 19.6214 392.573 20.3014 392.96C20.9814 393.347 21.5081 393.873 21.8814 394.54C22.2547 395.207 22.4414 395.953 22.4414 396.78C22.4414 397.607 22.2547 398.36 21.8814 399.04C21.5081 399.707 20.9747 400.233 20.2814 400.62C19.6014 401.007 18.8081 401.2 17.9014 401.2C17.0214 401.2 16.2347 401.02 15.5414 400.66C14.8614 400.287 14.3214 399.773 13.9214 399.12C13.5347 398.453 13.3414 397.673 13.3414 396.78ZM15.2014 396.8C15.2014 397.333 15.3214 397.82 15.5614 398.26C15.8014 398.687 16.1214 399.027 16.5214 399.28C16.9347 399.533 17.3881 399.66 17.8814 399.66C18.4014 399.66 18.8614 399.533 19.2614 399.28C19.6747 399.027 19.9947 398.687 20.2214 398.26C20.4481 397.82 20.5614 397.333 20.5614 396.8C20.5614 396.267 20.4481 395.787 20.2214 395.36C19.9947 394.92 19.6747 394.573 19.2614 394.32C18.8614 394.053 18.4014 393.92 17.8814 393.92C17.3747 393.92 16.9147 394.053 16.5014 394.32C16.1014 394.587 15.7814 394.94 15.5414 395.38C15.3147 395.807 15.2014 396.28 15.2014 396.8ZM26.6198 392.72L26.7998 395.12L26.6998 394.8C26.9132 394.293 27.2198 393.867 27.6198 393.52C28.0332 393.16 28.4598 392.887 28.8998 392.7C29.3532 392.5 29.7465 392.4 30.0798 392.4L29.9798 394.24C29.3532 394.2 28.7998 394.32 28.3198 394.6C27.8532 394.88 27.4798 395.253 27.1998 395.72C26.9332 396.187 26.7998 396.687 26.7998 397.22V401H24.9598V392.72H26.6198ZM35.9678 401.2C35.0211 401.2 34.2078 401.013 33.5278 400.64C32.8478 400.253 32.3211 399.733 31.9478 399.08C31.5878 398.413 31.4078 397.653 31.4078 396.8C31.4078 395.987 31.6145 395.247 32.0278 394.58C32.4411 393.913 32.9945 393.38 33.6878 392.98C34.3811 392.58 35.1545 392.38 36.0078 392.38C37.1011 392.38 38.0078 392.7 38.7278 393.34C39.4478 393.98 39.9345 394.86 40.1878 395.98L33.3678 398.38L32.9278 397.28L38.5278 395.24L38.1278 395.5C37.9678 395.06 37.7011 394.68 37.3278 394.36C36.9545 394.027 36.4678 393.86 35.8678 393.86C35.3611 393.86 34.9078 393.987 34.5078 394.24C34.1078 394.48 33.7945 394.813 33.5678 395.24C33.3411 395.667 33.2278 396.153 33.2278 396.7C33.2278 397.273 33.3478 397.78 33.5878 398.22C33.8278 398.647 34.1545 398.987 34.5678 399.24C34.9945 399.48 35.4745 399.6 36.0078 399.6C36.3678 399.6 36.7145 399.533 37.0478 399.4C37.3945 399.267 37.7145 399.093 38.0078 398.88L38.8678 400.26C38.4545 400.54 37.9878 400.767 37.4678 400.94C36.9611 401.113 36.4611 401.2 35.9678 401.2ZM44.1784 392.72L44.3384 394.58L44.2584 394.42C44.5651 393.793 44.9984 393.3 45.5584 392.94C46.1318 392.58 46.7851 392.4 47.5184 392.4C47.9851 392.4 48.3984 392.473 48.7584 392.62C49.1184 392.767 49.4118 392.98 49.6384 393.26C49.8784 393.527 50.0318 393.86 50.0984 394.26L49.9984 394.32C50.3184 393.72 50.7584 393.253 51.3184 392.92C51.8918 392.573 52.4918 392.4 53.1184 392.4C53.9318 392.4 54.5718 392.633 55.0384 393.1C55.5184 393.553 55.7651 394.147 55.7784 394.88V401H53.9184V395.54C53.9051 395.113 53.7984 394.76 53.5984 394.48C53.4118 394.187 53.0784 394.027 52.5984 394C52.1184 394 51.6851 394.147 51.2984 394.44C50.9251 394.733 50.6318 395.113 50.4184 395.58C50.2051 396.033 50.0918 396.527 50.0784 397.06V401H48.2184V395.54C48.2051 395.113 48.0918 394.76 47.8784 394.48C47.6784 394.187 47.3384 394.027 46.8584 394C46.3651 394 45.9318 394.147 45.5584 394.44C45.1851 394.733 44.8918 395.113 44.6784 395.58C44.4784 396.047 44.3784 396.547 44.3784 397.08V401H42.5184V392.72H44.1784ZM65.8105 386.54H67.7505V401H65.8105V386.54ZM76.3242 401.2C75.6976 401.2 75.0909 401.053 74.5042 400.76C73.9309 400.467 73.4842 400.073 73.1642 399.58L73.2842 399V404.98H71.4442V392.6H73.0442L73.3042 394.72L73.1042 394.14C73.5042 393.633 74.0109 393.213 74.6242 392.88C75.2376 392.547 75.9242 392.38 76.6842 392.38C77.4576 392.38 78.1509 392.567 78.7642 392.94C79.3909 393.313 79.8842 393.833 80.2442 394.5C80.6042 395.167 80.7842 395.947 80.7842 396.84C80.7842 397.733 80.5909 398.507 80.2042 399.16C79.8176 399.813 79.2842 400.32 78.6042 400.68C77.9376 401.027 77.1776 401.2 76.3242 401.2ZM75.9642 399.72C76.4976 399.72 76.9842 399.6 77.4242 399.36C77.8776 399.107 78.2376 398.767 78.5042 398.34C78.7709 397.9 78.9042 397.407 78.9042 396.86C78.9042 396.3 78.7776 395.807 78.5242 395.38C78.2709 394.94 77.9309 394.593 77.5042 394.34C77.0909 394.087 76.6242 393.96 76.1042 393.96C75.6242 393.96 75.1909 394.053 74.8042 394.24C74.4176 394.427 74.0976 394.687 73.8442 395.02C73.5909 395.34 73.4109 395.713 73.3042 396.14V397.52C73.3709 397.947 73.5309 398.327 73.7842 398.66C74.0376 398.993 74.3509 399.253 74.7242 399.44C75.1109 399.627 75.5242 399.72 75.9642 399.72ZM85.6197 401.16C85.033 401.16 84.4597 401.06 83.8997 400.86C83.353 400.647 82.8997 400.333 82.5397 399.92L83.3197 398.84C83.6664 399.173 84.0197 399.427 84.3797 399.6C84.753 399.76 85.1197 399.84 85.4797 399.84C85.7464 399.84 85.993 399.807 86.2197 399.74C86.4464 399.673 86.6264 399.567 86.7597 399.42C86.9064 399.26 86.9797 399.047 86.9797 398.78C86.9797 398.487 86.8797 398.253 86.6797 398.08C86.493 397.907 86.2464 397.767 85.9397 397.66C85.6464 397.553 85.333 397.453 84.9997 397.36C84.3197 397.133 83.7997 396.82 83.4397 396.42C83.0797 396.02 82.8997 395.533 82.8997 394.96C82.8997 394.52 83.0064 394.113 83.2197 393.74C83.4464 393.353 83.773 393.04 84.1997 392.8C84.6397 392.56 85.1797 392.44 85.8197 392.44C86.393 392.44 86.9064 392.513 87.3597 392.66C87.813 392.793 88.2397 393.02 88.6397 393.34L87.8997 394.5C87.6597 394.247 87.373 394.06 87.0397 393.94C86.7064 393.82 86.4064 393.753 86.1397 393.74C85.913 393.727 85.693 393.76 85.4797 393.84C85.2797 393.92 85.113 394.033 84.9797 394.18C84.8464 394.327 84.7797 394.5 84.7797 394.7C84.7797 394.98 84.873 395.207 85.0597 395.38C85.2464 395.553 85.4864 395.693 85.7797 395.8C86.0864 395.893 86.3864 395.993 86.6797 396.1C87.093 396.22 87.4597 396.38 87.7797 396.58C88.0997 396.78 88.353 397.027 88.5397 397.32C88.7397 397.613 88.8397 397.98 88.8397 398.42C88.8397 398.913 88.7197 399.373 88.4797 399.8C88.253 400.213 87.8997 400.547 87.4197 400.8C86.953 401.04 86.353 401.16 85.6197 401.16ZM94.0642 401.32C93.3176 401.32 92.6976 401.093 92.2042 400.64C91.7242 400.173 91.4709 399.573 91.4442 398.84V392.72H93.3042V398.18C93.3309 398.633 93.4576 399 93.6842 399.28C93.9242 399.56 94.2976 399.707 94.8042 399.72C95.2709 399.72 95.6842 399.587 96.0442 399.32C96.4176 399.04 96.7176 398.667 96.9442 398.2C97.1709 397.72 97.2842 397.18 97.2842 396.58V392.72H99.1442V401H97.4442L97.2842 398.96L97.3842 399.32C97.2242 399.707 96.9776 400.053 96.6442 400.36C96.3242 400.653 95.9442 400.887 95.5042 401.06C95.0642 401.233 94.5842 401.32 94.0642 401.32ZM104.022 392.72L104.182 394.58L104.102 394.42C104.409 393.793 104.842 393.3 105.402 392.94C105.976 392.58 106.629 392.4 107.362 392.4C107.829 392.4 108.242 392.473 108.602 392.62C108.962 392.767 109.256 392.98 109.482 393.26C109.722 393.527 109.876 393.86 109.942 394.26L109.842 394.32C110.162 393.72 110.602 393.253 111.162 392.92C111.736 392.573 112.336 392.4 112.962 392.4C113.776 392.4 114.416 392.633 114.882 393.1C115.362 393.553 115.609 394.147 115.622 394.88V401H113.762V395.54C113.749 395.113 113.642 394.76 113.442 394.48C113.256 394.187 112.922 394.027 112.442 394C111.962 394 111.529 394.147 111.142 394.44C110.769 394.733 110.476 395.113 110.262 395.58C110.049 396.033 109.936 396.527 109.922 397.06V401H108.062V395.54C108.049 395.113 107.936 394.76 107.722 394.48C107.522 394.187 107.182 394.027 106.702 394C106.209 394 105.776 394.147 105.402 394.44C105.029 394.733 104.736 395.113 104.522 395.58C104.322 396.047 104.222 396.547 104.222 397.08V401H102.362V392.72H104.022ZM125.194 392.72H127.054V401H125.194V392.72ZM125.054 389.72C125.054 389.427 125.168 389.18 125.394 388.98C125.634 388.78 125.894 388.68 126.174 388.68C126.454 388.68 126.701 388.78 126.914 388.98C127.141 389.18 127.254 389.427 127.254 389.72C127.254 390.027 127.141 390.28 126.914 390.48C126.701 390.667 126.454 390.76 126.174 390.76C125.894 390.76 125.634 390.66 125.394 390.46C125.168 390.26 125.054 390.013 125.054 389.72ZM132.592 401.16C132.006 401.16 131.432 401.06 130.872 400.86C130.326 400.647 129.872 400.333 129.512 399.92L130.292 398.84C130.639 399.173 130.992 399.427 131.352 399.6C131.726 399.76 132.092 399.84 132.452 399.84C132.719 399.84 132.966 399.807 133.192 399.74C133.419 399.673 133.599 399.567 133.732 399.42C133.879 399.26 133.952 399.047 133.952 398.78C133.952 398.487 133.852 398.253 133.652 398.08C133.466 397.907 133.219 397.767 132.912 397.66C132.619 397.553 132.306 397.453 131.972 397.36C131.292 397.133 130.772 396.82 130.412 396.42C130.052 396.02 129.872 395.533 129.872 394.96C129.872 394.52 129.979 394.113 130.192 393.74C130.419 393.353 130.746 393.04 131.172 392.8C131.612 392.56 132.152 392.44 132.792 392.44C133.366 392.44 133.879 392.513 134.332 392.66C134.786 392.793 135.212 393.02 135.612 393.34L134.872 394.5C134.632 394.247 134.346 394.06 134.012 393.94C133.679 393.82 133.379 393.753 133.112 393.74C132.886 393.727 132.666 393.76 132.452 393.84C132.252 393.92 132.086 394.033 131.952 394.18C131.819 394.327 131.752 394.5 131.752 394.7C131.752 394.98 131.846 395.207 132.032 395.38C132.219 395.553 132.459 395.693 132.752 395.8C133.059 395.893 133.359 395.993 133.652 396.1C134.066 396.22 134.432 396.38 134.752 396.58C135.072 396.78 135.326 397.027 135.512 397.32C135.712 397.613 135.812 397.98 135.812 398.42C135.812 398.913 135.692 399.373 135.452 399.8C135.226 400.213 134.872 400.547 134.392 400.8C133.926 401.04 133.326 401.16 132.592 401.16ZM145.545 389.08H147.405V392.76H149.685V394.22H147.405V401H145.545V394.22H144.025V392.76H145.545V389.08ZM151.933 401V385.52H153.753V394.64L153.713 394.3C153.993 393.753 154.419 393.3 154.993 392.94C155.579 392.58 156.266 392.4 157.053 392.4C157.839 392.4 158.479 392.633 158.973 393.1C159.479 393.553 159.739 394.147 159.753 394.88V401H157.873V395.54C157.859 395.087 157.726 394.72 157.473 394.44C157.233 394.147 156.853 394 156.333 394C155.853 394 155.419 394.14 155.033 394.42C154.646 394.687 154.339 395.053 154.113 395.52C153.899 395.987 153.793 396.52 153.793 397.12V401H151.933ZM166.427 401.2C165.654 401.2 164.947 401.033 164.307 400.7C163.681 400.367 163.181 399.88 162.807 399.24C162.447 398.587 162.267 397.793 162.267 396.86C162.267 395.94 162.461 395.147 162.847 394.48C163.234 393.8 163.747 393.28 164.387 392.92C165.041 392.56 165.754 392.38 166.527 392.38C167.301 392.38 167.954 392.56 168.487 392.92C169.021 393.267 169.427 393.68 169.707 394.16L169.587 394.48L169.767 392.72H171.487V401H169.627V398.84L169.827 399.32C169.774 399.453 169.654 399.627 169.467 399.84C169.294 400.04 169.054 400.247 168.747 400.46C168.454 400.673 168.114 400.853 167.727 401C167.341 401.133 166.907 401.2 166.427 401.2ZM166.927 399.66C167.394 399.66 167.814 399.573 168.187 399.4C168.561 399.227 168.867 398.987 169.107 398.68C169.361 398.36 169.534 397.98 169.627 397.54V395.92C169.521 395.52 169.334 395.173 169.067 394.88C168.801 394.573 168.481 394.34 168.107 394.18C167.734 394.007 167.321 393.92 166.867 393.92C166.374 393.92 165.921 394.04 165.507 394.28C165.094 394.52 164.761 394.853 164.507 395.28C164.267 395.707 164.147 396.207 164.147 396.78C164.147 397.313 164.274 397.8 164.527 398.24C164.781 398.68 165.121 399.027 165.547 399.28C165.974 399.533 166.434 399.66 166.927 399.66ZM175.506 389.08H177.366V392.76H179.646V394.22H177.366V401H175.506V394.22H173.986V392.76H175.506V389.08ZM188.222 392.72H190.082V401H188.222V392.72ZM188.082 389.72C188.082 389.427 188.195 389.18 188.422 388.98C188.662 388.78 188.922 388.68 189.202 388.68C189.482 388.68 189.728 388.78 189.942 388.98C190.168 389.18 190.282 389.427 190.282 389.72C190.282 390.027 190.168 390.28 189.942 390.48C189.728 390.667 189.482 390.76 189.202 390.76C188.922 390.76 188.662 390.66 188.422 390.46C188.195 390.26 188.082 390.013 188.082 389.72ZM194.1 389.08H195.96V392.76H198.24V394.22H195.96V401H194.1V394.22H192.58V392.76H194.1V389.08ZM206.815 401V385.52H208.635V394.64L208.595 394.3C208.875 393.753 209.302 393.3 209.875 392.94C210.462 392.58 211.149 392.4 211.935 392.4C212.722 392.4 213.362 392.633 213.855 393.1C214.362 393.553 214.622 394.147 214.635 394.88V401H212.755V395.54C212.742 395.087 212.609 394.72 212.355 394.44C212.115 394.147 211.735 394 211.215 394C210.735 394 210.302 394.14 209.915 394.42C209.529 394.687 209.222 395.053 208.995 395.52C208.782 395.987 208.675 396.52 208.675 397.12V401H206.815ZM221.31 401.2C220.537 401.2 219.83 401.033 219.19 400.7C218.563 400.367 218.063 399.88 217.69 399.24C217.33 398.587 217.15 397.793 217.15 396.86C217.15 395.94 217.343 395.147 217.73 394.48C218.117 393.8 218.63 393.28 219.27 392.92C219.923 392.56 220.637 392.38 221.41 392.38C222.183 392.38 222.837 392.56 223.37 392.92C223.903 393.267 224.31 393.68 224.59 394.16L224.47 394.48L224.65 392.72H226.37V401H224.51V398.84L224.71 399.32C224.657 399.453 224.537 399.627 224.35 399.84C224.177 400.04 223.937 400.247 223.63 400.46C223.337 400.673 222.997 400.853 222.61 401C222.223 401.133 221.79 401.2 221.31 401.2ZM221.81 399.66C222.277 399.66 222.697 399.573 223.07 399.4C223.443 399.227 223.75 398.987 223.99 398.68C224.243 398.36 224.417 397.98 224.51 397.54V395.92C224.403 395.52 224.217 395.173 223.95 394.88C223.683 394.573 223.363 394.34 222.99 394.18C222.617 394.007 222.203 393.92 221.75 393.92C221.257 393.92 220.803 394.04 220.39 394.28C219.977 394.52 219.643 394.853 219.39 395.28C219.15 395.707 219.03 396.207 219.03 396.78C219.03 397.313 219.157 397.8 219.41 398.24C219.663 398.68 220.003 399.027 220.43 399.28C220.857 399.533 221.317 399.66 221.81 399.66ZM231.909 401.16C231.322 401.16 230.749 401.06 230.189 400.86C229.642 400.647 229.189 400.333 228.829 399.92L229.609 398.84C229.955 399.173 230.309 399.427 230.669 399.6C231.042 399.76 231.409 399.84 231.769 399.84C232.035 399.84 232.282 399.807 232.509 399.74C232.735 399.673 232.915 399.567 233.049 399.42C233.195 399.26 233.269 399.047 233.269 398.78C233.269 398.487 233.169 398.253 232.969 398.08C232.782 397.907 232.535 397.767 232.229 397.66C231.935 397.553 231.622 397.453 231.289 397.36C230.609 397.133 230.089 396.82 229.729 396.42C229.369 396.02 229.189 395.533 229.189 394.96C229.189 394.52 229.295 394.113 229.509 393.74C229.735 393.353 230.062 393.04 230.489 392.8C230.929 392.56 231.469 392.44 232.109 392.44C232.682 392.44 233.195 392.513 233.649 392.66C234.102 392.793 234.529 393.02 234.929 393.34L234.189 394.5C233.949 394.247 233.662 394.06 233.329 393.94C232.995 393.82 232.695 393.753 232.429 393.74C232.202 393.727 231.982 393.76 231.769 393.84C231.569 393.92 231.402 394.033 231.269 394.18C231.135 394.327 231.069 394.5 231.069 394.7C231.069 394.98 231.162 395.207 231.349 395.38C231.535 395.553 231.775 395.693 232.069 395.8C232.375 395.893 232.675 395.993 232.969 396.1C233.382 396.22 233.749 396.38 234.069 396.58C234.389 396.78 234.642 397.027 234.829 397.32C235.029 397.613 235.129 397.98 235.129 398.42C235.129 398.913 235.009 399.373 234.769 399.8C234.542 400.213 234.189 400.547 233.709 400.8C233.242 401.04 232.642 401.16 231.909 401.16ZM247.501 401.2C246.728 401.2 246.021 401.033 245.381 400.7C244.755 400.367 244.255 399.88 243.881 399.24C243.521 398.587 243.341 397.793 243.341 396.86C243.341 395.94 243.535 395.147 243.921 394.48C244.308 393.8 244.821 393.28 245.461 392.92C246.115 392.56 246.828 392.38 247.601 392.38C248.375 392.38 249.028 392.56 249.561 392.92C250.095 393.267 250.501 393.68 250.781 394.16L250.661 394.48L250.841 392.72H252.561V401H250.701V398.84L250.901 399.32C250.848 399.453 250.728 399.627 250.541 399.84C250.368 400.04 250.128 400.247 249.821 400.46C249.528 400.673 249.188 400.853 248.801 401C248.415 401.133 247.981 401.2 247.501 401.2ZM248.001 399.66C248.468 399.66 248.888 399.573 249.261 399.4C249.635 399.227 249.941 398.987 250.181 398.68C250.435 398.36 250.608 397.98 250.701 397.54V395.92C250.595 395.52 250.408 395.173 250.141 394.88C249.875 394.573 249.555 394.34 249.181 394.18C248.808 394.007 248.395 393.92 247.941 393.92C247.448 393.92 246.995 394.04 246.581 394.28C246.168 394.52 245.835 394.853 245.581 395.28C245.341 395.707 245.221 396.207 245.221 396.78C245.221 397.313 245.348 397.8 245.601 398.24C245.855 398.68 246.195 399.027 246.621 399.28C247.048 399.533 247.508 399.66 248.001 399.66ZM3.28 417.72L3.44 419.58L3.36 419.42C3.66667 418.793 4.1 418.3 4.66 417.94C5.23333 417.58 5.88667 417.4 6.62 417.4C7.08667 417.4 7.5 417.473 7.86 417.62C8.22 417.767 8.51333 417.98 8.74 418.26C8.98 418.527 9.13333 418.86 9.2 419.26L9.1 419.32C9.42 418.72 9.86 418.253 10.42 417.92C10.9933 417.573 11.5933 417.4 12.22 417.4C13.0333 417.4 13.6733 417.633 14.14 418.1C14.62 418.553 14.8667 419.147 14.88 419.88V426H13.02V420.54C13.0067 420.113 12.9 419.76 12.7 419.48C12.5133 419.187 12.18 419.027 11.7 419C11.22 419 10.7867 419.147 10.4 419.44C10.0267 419.733 9.73333 420.113 9.52 420.58C9.30667 421.033 9.19333 421.527 9.18 422.06V426H7.32V420.54C7.30667 420.113 7.19333 419.76 6.98 419.48C6.78 419.187 6.44 419.027 5.96 419C5.46667 419 5.03333 419.147 4.66 419.44C4.28667 419.733 3.99333 420.113 3.78 420.58C3.58 421.047 3.48 421.547 3.48 422.08V426H1.62V417.72H3.28ZM17.4039 421.78C17.4039 420.953 17.5972 420.207 17.9839 419.54C18.3839 418.873 18.9306 418.347 19.6239 417.96C20.3172 417.573 21.1039 417.38 21.9839 417.38C22.8906 417.38 23.6839 417.573 24.3639 417.96C25.0439 418.347 25.5706 418.873 25.9439 419.54C26.3172 420.207 26.5039 420.953 26.5039 421.78C26.5039 422.607 26.3172 423.36 25.9439 424.04C25.5706 424.707 25.0372 425.233 24.3439 425.62C23.6639 426.007 22.8706 426.2 21.9639 426.2C21.0839 426.2 20.2972 426.02 19.6039 425.66C18.9239 425.287 18.3839 424.773 17.9839 424.12C17.5972 423.453 17.4039 422.673 17.4039 421.78ZM19.2639 421.8C19.2639 422.333 19.3839 422.82 19.6239 423.26C19.8639 423.687 20.1839 424.027 20.5839 424.28C20.9972 424.533 21.4506 424.66 21.9439 424.66C22.4639 424.66 22.9239 424.533 23.3239 424.28C23.7372 424.027 24.0572 423.687 24.2839 423.26C24.5106 422.82 24.6239 422.333 24.6239 421.8C24.6239 421.267 24.5106 420.787 24.2839 420.36C24.0572 419.92 23.7372 419.573 23.3239 419.32C22.9239 419.053 22.4639 418.92 21.9439 418.92C21.4372 418.92 20.9772 419.053 20.5639 419.32C20.1639 419.587 19.8439 419.94 19.6039 420.38C19.3772 420.807 19.2639 421.28 19.2639 421.8ZM30.6823 417.72L30.8623 420.12L30.7623 419.8C30.9757 419.293 31.2823 418.867 31.6823 418.52C32.0957 418.16 32.5223 417.887 32.9623 417.7C33.4157 417.5 33.809 417.4 34.1423 417.4L34.0423 419.24C33.4157 419.2 32.8623 419.32 32.3823 419.6C31.9157 419.88 31.5423 420.253 31.2623 420.72C30.9957 421.187 30.8623 421.687 30.8623 422.22V426H29.0223V417.72H30.6823ZM40.0303 426.2C39.0836 426.2 38.2703 426.013 37.5903 425.64C36.9103 425.253 36.3836 424.733 36.0103 424.08C35.6503 423.413 35.4703 422.653 35.4703 421.8C35.4703 420.987 35.677 420.247 36.0903 419.58C36.5036 418.913 37.057 418.38 37.7503 417.98C38.4436 417.58 39.217 417.38 40.0703 417.38C41.1636 417.38 42.0703 417.7 42.7903 418.34C43.5103 418.98 43.997 419.86 44.2503 420.98L37.4303 423.38L36.9903 422.28L42.5903 420.24L42.1903 420.5C42.0303 420.06 41.7636 419.68 41.3903 419.36C41.017 419.027 40.5303 418.86 39.9303 418.86C39.4236 418.86 38.9703 418.987 38.5703 419.24C38.1703 419.48 37.857 419.813 37.6303 420.24C37.4036 420.667 37.2903 421.153 37.2903 421.7C37.2903 422.273 37.4103 422.78 37.6503 423.22C37.8903 423.647 38.217 423.987 38.6303 424.24C39.057 424.48 39.537 424.6 40.0703 424.6C40.4303 424.6 40.777 424.533 41.1103 424.4C41.457 424.267 41.777 424.093 42.0703 423.88L42.9303 425.26C42.517 425.54 42.0503 425.767 41.5303 425.94C41.0236 426.113 40.5236 426.2 40.0303 426.2ZM46.0209 420.88H49.7609V422.52H46.0209V420.88ZM51.9352 421.78C51.9352 420.953 52.1285 420.207 52.5152 419.54C52.9152 418.873 53.4618 418.347 54.1552 417.96C54.8485 417.573 55.6352 417.38 56.5152 417.38C57.4218 417.38 58.2152 417.573 58.8952 417.96C59.5752 418.347 60.1018 418.873 60.4752 419.54C60.8485 420.207 61.0352 420.953 61.0352 421.78C61.0352 422.607 60.8485 423.36 60.4752 424.04C60.1018 424.707 59.5685 425.233 58.8752 425.62C58.1952 426.007 57.4018 426.2 56.4952 426.2C55.6152 426.2 54.8285 426.02 54.1352 425.66C53.4552 425.287 52.9152 424.773 52.5152 424.12C52.1285 423.453 51.9352 422.673 51.9352 421.78ZM53.7952 421.8C53.7952 422.333 53.9152 422.82 54.1552 423.26C54.3952 423.687 54.7152 424.027 55.1152 424.28C55.5285 424.533 55.9818 424.66 56.4752 424.66C56.9952 424.66 57.4552 424.533 57.8552 424.28C58.2685 424.027 58.5885 423.687 58.8152 423.26C59.0418 422.82 59.1552 422.333 59.1552 421.8C59.1552 421.267 59.0418 420.787 58.8152 420.36C58.5885 419.92 58.2685 419.573 57.8552 419.32C57.4552 419.053 56.9952 418.92 56.4752 418.92C55.9685 418.92 55.5085 419.053 55.0952 419.32C54.6952 419.587 54.3752 419.94 54.1352 420.38C53.9085 420.807 53.7952 421.28 53.7952 421.8ZM65.2136 417.72L65.3936 420.12L65.2936 419.8C65.5069 419.293 65.8136 418.867 66.2136 418.52C66.6269 418.16 67.0536 417.887 67.4936 417.7C67.9469 417.5 68.3403 417.4 68.6736 417.4L68.5736 419.24C67.9469 419.2 67.3936 419.32 66.9136 419.6C66.4469 419.88 66.0736 420.253 65.7936 420.72C65.5269 421.187 65.3936 421.687 65.3936 422.22V426H63.5536V417.72H65.2136ZM70.5131 420.88H74.2531V422.52H70.5131V420.88ZM77.1473 410.52H79.0073V426H77.1473V410.52ZM86.0655 426.2C85.1188 426.2 84.3055 426.013 83.6255 425.64C82.9455 425.253 82.4188 424.733 82.0455 424.08C81.6855 423.413 81.5055 422.653 81.5055 421.8C81.5055 420.987 81.7121 420.247 82.1255 419.58C82.5388 418.913 83.0921 418.38 83.7855 417.98C84.4788 417.58 85.2521 417.38 86.1055 417.38C87.1988 417.38 88.1055 417.7 88.8255 418.34C89.5455 418.98 90.0321 419.86 90.2855 420.98L83.4655 423.38L83.0255 422.28L88.6255 420.24L88.2255 420.5C88.0655 420.06 87.7988 419.68 87.4255 419.36C87.0521 419.027 86.5655 418.86 85.9655 418.86C85.4588 418.86 85.0055 418.987 84.6055 419.24C84.2055 419.48 83.8921 419.813 83.6655 420.24C83.4388 420.667 83.3255 421.153 83.3255 421.7C83.3255 422.273 83.4455 422.78 83.6855 423.22C83.9255 423.647 84.2521 423.987 84.6655 424.24C85.0921 424.48 85.5721 424.6 86.1055 424.6C86.4655 424.6 86.8121 424.533 87.1455 424.4C87.4921 424.267 87.8121 424.093 88.1055 423.88L88.9655 425.26C88.5521 425.54 88.0855 425.767 87.5655 425.94C87.0588 426.113 86.5588 426.2 86.0655 426.2ZM94.9361 426.16C94.3494 426.16 93.7761 426.06 93.2161 425.86C92.6694 425.647 92.2161 425.333 91.8561 424.92L92.6361 423.84C92.9828 424.173 93.3361 424.427 93.6961 424.6C94.0694 424.76 94.4361 424.84 94.7961 424.84C95.0628 424.84 95.3094 424.807 95.5361 424.74C95.7628 424.673 95.9428 424.567 96.0761 424.42C96.2228 424.26 96.2961 424.047 96.2961 423.78C96.2961 423.487 96.1961 423.253 95.9961 423.08C95.8094 422.907 95.5628 422.767 95.2561 422.66C94.9628 422.553 94.6494 422.453 94.3161 422.36C93.6361 422.133 93.1161 421.82 92.7561 421.42C92.3961 421.02 92.2161 420.533 92.2161 419.96C92.2161 419.52 92.3228 419.113 92.5361 418.74C92.7628 418.353 93.0894 418.04 93.5161 417.8C93.9561 417.56 94.4961 417.44 95.1361 417.44C95.7094 417.44 96.2228 417.513 96.6761 417.66C97.1294 417.793 97.5561 418.02 97.9561 418.34L97.2161 419.5C96.9761 419.247 96.6894 419.06 96.3561 418.94C96.0228 418.82 95.7228 418.753 95.4561 418.74C95.2294 418.727 95.0094 418.76 94.7961 418.84C94.5961 418.92 94.4294 419.033 94.2961 419.18C94.1628 419.327 94.0961 419.5 94.0961 419.7C94.0961 419.98 94.1894 420.207 94.3761 420.38C94.5628 420.553 94.8028 420.693 95.0961 420.8C95.4028 420.893 95.7028 420.993 95.9961 421.1C96.4094 421.22 96.7761 421.38 97.0961 421.58C97.4161 421.78 97.6694 422.027 97.8561 422.32C98.0561 422.613 98.1561 422.98 98.1561 423.42C98.1561 423.913 98.0361 424.373 97.7961 424.8C97.5694 425.213 97.2161 425.547 96.7361 425.8C96.2694 426.04 95.6694 426.16 94.9361 426.16ZM103.081 426.16C102.494 426.16 101.921 426.06 101.361 425.86C100.814 425.647 100.361 425.333 100.001 424.92L100.781 423.84C101.127 424.173 101.481 424.427 101.841 424.6C102.214 424.76 102.581 424.84 102.941 424.84C103.207 424.84 103.454 424.807 103.681 424.74C103.907 424.673 104.087 424.567 104.221 424.42C104.367 424.26 104.441 424.047 104.441 423.78C104.441 423.487 104.341 423.253 104.141 423.08C103.954 422.907 103.707 422.767 103.401 422.66C103.107 422.553 102.794 422.453 102.461 422.36C101.781 422.133 101.261 421.82 100.901 421.42C100.541 421.02 100.361 420.533 100.361 419.96C100.361 419.52 100.467 419.113 100.681 418.74C100.907 418.353 101.234 418.04 101.661 417.8C102.101 417.56 102.641 417.44 103.281 417.44C103.854 417.44 104.367 417.513 104.821 417.66C105.274 417.793 105.701 418.02 106.101 418.34L105.361 419.5C105.121 419.247 104.834 419.06 104.501 418.94C104.167 418.82 103.867 418.753 103.601 418.74C103.374 418.727 103.154 418.76 102.941 418.84C102.741 418.92 102.574 419.033 102.441 419.18C102.307 419.327 102.241 419.5 102.241 419.7C102.241 419.98 102.334 420.207 102.521 420.38C102.707 420.553 102.947 420.693 103.241 420.8C103.547 420.893 103.847 420.993 104.141 421.1C104.554 421.22 104.921 421.38 105.241 421.58C105.561 421.78 105.814 422.027 106.001 422.32C106.201 422.613 106.301 422.98 106.301 423.42C106.301 423.913 106.181 424.373 105.941 424.8C105.714 425.213 105.361 425.547 104.881 425.8C104.414 426.04 103.814 426.16 103.081 426.16ZM116.893 417.72L117.053 419.74L116.973 419.42C117.24 418.807 117.673 418.32 118.273 417.96C118.873 417.587 119.567 417.4 120.353 417.4C121.14 417.4 121.78 417.633 122.273 418.1C122.78 418.553 123.04 419.147 123.053 419.88V426H121.173V420.54C121.16 420.087 121.027 419.72 120.773 419.44C120.533 419.147 120.153 419 119.633 419C119.153 419 118.72 419.133 118.333 419.4C117.947 419.667 117.64 420.033 117.413 420.5C117.2 420.967 117.093 421.507 117.093 422.12V426H115.233V417.72H116.893ZM125.568 421.78C125.568 420.953 125.761 420.207 126.148 419.54C126.548 418.873 127.095 418.347 127.788 417.96C128.481 417.573 129.268 417.38 130.148 417.38C131.055 417.38 131.848 417.573 132.528 417.96C133.208 418.347 133.735 418.873 134.108 419.54C134.481 420.207 134.668 420.953 134.668 421.78C134.668 422.607 134.481 423.36 134.108 424.04C133.735 424.707 133.201 425.233 132.508 425.62C131.828 426.007 131.035 426.2 130.128 426.2C129.248 426.2 128.461 426.02 127.768 425.66C127.088 425.287 126.548 424.773 126.148 424.12C125.761 423.453 125.568 422.673 125.568 421.78ZM127.428 421.8C127.428 422.333 127.548 422.82 127.788 423.26C128.028 423.687 128.348 424.027 128.748 424.28C129.161 424.533 129.615 424.66 130.108 424.66C130.628 424.66 131.088 424.533 131.488 424.28C131.901 424.027 132.221 423.687 132.448 423.26C132.675 422.82 132.788 422.333 132.788 421.8C132.788 421.267 132.675 420.787 132.448 420.36C132.221 419.92 131.901 419.573 131.488 419.32C131.088 419.053 130.628 418.92 130.108 418.92C129.601 418.92 129.141 419.053 128.728 419.32C128.328 419.587 128.008 419.94 127.768 420.38C127.541 420.807 127.428 421.28 127.428 421.8ZM138.846 417.72L139.026 420.12L138.926 419.8C139.14 419.293 139.446 418.867 139.846 418.52C140.26 418.16 140.686 417.887 141.126 417.7C141.58 417.5 141.973 417.4 142.306 417.4L142.206 419.24C141.58 419.2 141.026 419.32 140.546 419.6C140.08 419.88 139.706 420.253 139.426 420.72C139.16 421.187 139.026 421.687 139.026 422.22V426H137.186V417.72H138.846ZM146.366 417.72L146.526 419.58L146.446 419.42C146.753 418.793 147.186 418.3 147.746 417.94C148.319 417.58 148.973 417.4 149.706 417.4C150.173 417.4 150.586 417.473 150.946 417.62C151.306 417.767 151.599 417.98 151.826 418.26C152.066 418.527 152.219 418.86 152.286 419.26L152.186 419.32C152.506 418.72 152.946 418.253 153.506 417.92C154.079 417.573 154.679 417.4 155.306 417.4C156.119 417.4 156.759 417.633 157.226 418.1C157.706 418.553 157.953 419.147 157.966 419.88V426H156.106V420.54C156.093 420.113 155.986 419.76 155.786 419.48C155.599 419.187 155.266 419.027 154.786 419C154.306 419 153.873 419.147 153.486 419.44C153.113 419.733 152.819 420.113 152.606 420.58C152.393 421.033 152.279 421.527 152.266 422.06V426H150.406V420.54C150.393 420.113 150.279 419.76 150.066 419.48C149.866 419.187 149.526 419.027 149.046 419C148.553 419 148.119 419.147 147.746 419.44C147.373 419.733 147.079 420.113 146.866 420.58C146.666 421.047 146.566 421.547 146.566 422.08V426H144.706V417.72H146.366ZM164.65 426.2C163.877 426.2 163.17 426.033 162.53 425.7C161.903 425.367 161.403 424.88 161.03 424.24C160.67 423.587 160.49 422.793 160.49 421.86C160.49 420.94 160.683 420.147 161.07 419.48C161.457 418.8 161.97 418.28 162.61 417.92C163.263 417.56 163.977 417.38 164.75 417.38C165.523 417.38 166.177 417.56 166.71 417.92C167.243 418.267 167.65 418.68 167.93 419.16L167.81 419.48L167.99 417.72H169.71V426H167.85V423.84L168.05 424.32C167.997 424.453 167.877 424.627 167.69 424.84C167.517 425.04 167.277 425.247 166.97 425.46C166.677 425.673 166.337 425.853 165.95 426C165.563 426.133 165.13 426.2 164.65 426.2ZM165.15 424.66C165.617 424.66 166.037 424.573 166.41 424.4C166.783 424.227 167.09 423.987 167.33 423.68C167.583 423.36 167.757 422.98 167.85 422.54V420.92C167.743 420.52 167.557 420.173 167.29 419.88C167.023 419.573 166.703 419.34 166.33 419.18C165.957 419.007 165.543 418.92 165.09 418.92C164.597 418.92 164.143 419.04 163.73 419.28C163.317 419.52 162.983 419.853 162.73 420.28C162.49 420.707 162.37 421.207 162.37 421.78C162.37 422.313 162.497 422.8 162.75 423.24C163.003 423.68 163.343 424.027 163.77 424.28C164.197 424.533 164.657 424.66 165.15 424.66ZM172.929 410.52H174.789V426H172.929V410.52Z" fill="#555555"/>
</svg>
